<svg width="390" height="128" viewBox="0 0 390 128" fill="none" xmlns="http://www.w3.org/2000/svg">
<g clip-path="url(#clip0_67_96)">
<path d="M43.44 47.6552C43.44 47.7851 43.2452 47.8825 42.8556 47.9474C42.5309 48.0124 42.3361 47.9474 42.2712 47.7526C41.2323 43.9865 39.4791 41.1944 37.0117 39.3763C34.5442 37.5582 31.2976 36.6491 27.2717 36.6491H24.3498C22.4018 36.6491 20.9733 37.0712 20.0642 37.9153C19.1552 38.7595 18.7006 40.0581 18.7006 41.8113V62.8495H25.7134C29.4795 62.8495 32.3365 62.2002 34.2845 60.9015C36.2974 59.5379 37.3039 57.6874 37.3039 55.3498C37.3039 55.2199 37.4987 55.155 37.8882 55.155C38.2778 55.155 38.4726 55.2199 38.4726 55.3498L38.3752 64.2131C38.3752 66.2909 38.4077 67.8493 38.4726 68.8883L38.57 74.0504C38.57 74.2452 38.3752 74.3426 37.9856 74.3426C37.5961 74.3426 37.4013 74.2452 37.4013 74.0504C37.4013 71.4531 36.3623 69.4077 34.2845 67.9143C32.2716 66.3559 29.3821 65.5767 25.616 65.5767H18.7006V86.4201C18.7006 88.433 18.9604 89.9265 19.4798 90.9005C19.9993 91.8744 20.9733 92.5562 22.4018 92.9458C23.8303 93.3354 26.0705 93.5302 29.1223 93.5302C29.2522 93.5302 29.3171 93.725 29.3171 94.1146C29.3171 94.5042 29.2522 94.699 29.1223 94.699C26.4601 94.699 24.3822 94.6665 22.8888 94.6016L12.9541 94.5042L5.64915 94.6016C4.35049 94.6665 2.56484 94.699 0.292197 94.699C0.0973992 94.699 0 94.5042 0 94.1146C0 93.725 0.0973992 93.5302 0.292197 93.5302C2.56484 93.5302 4.22063 93.3679 5.25955 93.0432C6.29847 92.7186 6.98027 92.1017 7.30493 91.1926C7.69453 90.2187 7.88933 88.7577 7.88933 86.8097V41.7139C7.88933 39.7659 7.727 38.3374 7.40233 37.4283C7.07767 36.5193 6.42834 35.9024 5.45435 35.5778C4.48036 35.1882 2.98691 34.9934 0.973991 34.9934C0.779193 34.9934 0.681794 34.7986 0.681794 34.409C0.681794 34.0194 0.779193 33.8246 0.973991 33.8246H42.2712C42.9205 33.8246 43.2452 34.1168 43.2452 34.7012L43.44 47.6552Z" fill="#333333"/>
<path d="M83.5159 95.8678C77.4772 95.8678 72.0878 94.4717 67.3477 91.6796C62.6725 88.8226 59.0363 84.9916 56.439 80.1865C53.9066 75.3166 52.6404 70.0246 52.6404 64.3105C52.6404 57.6224 54.3287 51.9083 57.7052 47.1682C61.0817 42.3632 65.3997 38.7595 70.6592 36.357C75.9837 33.9544 81.4056 32.7532 86.9249 32.7532C93.0935 32.7532 98.5154 34.2142 103.191 37.1361C107.866 39.9932 111.437 43.7917 113.904 48.5318C116.437 53.2719 117.703 58.3042 117.703 63.6287C117.703 69.5376 116.145 74.9595 113.028 79.8943C109.911 84.8292 105.723 88.7252 100.463 91.5822C95.2687 94.4393 89.6196 95.8678 83.5159 95.8678ZM86.7301 93.4328C90.3663 93.4328 93.613 92.3939 96.47 90.3161C99.392 88.1733 101.665 85.089 103.288 81.0631C104.911 76.9724 105.723 72.1024 105.723 66.4533C105.723 60.4795 104.814 55.155 102.996 50.4798C101.178 45.7397 98.5479 42.0386 95.1064 39.3763C91.665 36.7141 87.6392 35.383 83.0289 35.383C77.1201 35.383 72.5748 37.6231 69.3931 42.1035C66.2113 46.5189 64.6205 52.72 64.6205 60.7067C64.6205 67.0052 65.562 72.6543 67.4451 77.6542C69.3931 82.5891 72.0228 86.4526 75.3344 89.2447C78.7109 92.0368 82.5095 93.4328 86.7301 93.4328Z" fill="#333333"/>
<path d="M203.572 93.5302C203.702 93.5302 203.767 93.725 203.767 94.1146C203.767 94.5042 203.702 94.699 203.572 94.699C201.365 94.699 199.612 94.6665 198.313 94.6016L191.105 94.5042L183.8 94.6016C182.567 94.6665 180.878 94.699 178.736 94.699C178.541 94.699 178.444 94.5042 178.444 94.1146C178.444 93.725 178.541 93.5302 178.736 93.5302C181.463 93.5302 183.313 93.2056 184.287 92.5562C185.261 91.9069 185.748 90.5433 185.748 88.4655L185.651 86.8097L183.606 46.9735L163.541 94.0172C163.412 94.277 163.152 94.4068 162.762 94.4068C162.373 94.4068 162.113 94.277 161.983 94.0172L137.341 47.1682L136.562 82.3293C136.497 85.8357 137.179 88.5953 138.607 90.6083C140.101 92.5562 142.179 93.5302 144.841 93.5302C145.036 93.5302 145.133 93.725 145.133 94.1146C145.133 94.5042 145.036 94.699 144.841 94.699C143.088 94.699 141.724 94.6665 140.75 94.6016L135.393 94.5042L129.257 94.6016C128.218 94.6665 126.822 94.699 125.069 94.699C124.874 94.699 124.777 94.5042 124.777 94.1146C124.777 93.725 124.874 93.5302 125.069 93.5302C127.731 93.5302 129.841 92.5238 131.4 90.5108C132.958 88.4979 133.77 85.7708 133.835 82.3293L134.711 42.0061L134.614 41.9087C133.315 39.5062 131.952 37.753 130.523 36.6491C129.16 35.5453 127.569 34.9934 125.751 34.9934C125.556 34.9934 125.458 34.7986 125.458 34.409C125.458 34.0194 125.556 33.8246 125.751 33.8246L130.328 33.922C131.237 33.9869 132.406 34.0194 133.835 34.0194L138.997 33.922C139.581 33.857 140.328 33.8246 141.237 33.8246C142.081 33.8246 142.73 34.1168 143.185 34.7012C143.64 35.2856 144.484 36.6816 145.717 38.8893L166.95 78.7256L185.456 36.2596C185.846 35.3505 186.235 34.7336 186.625 34.409C187.08 34.0194 187.664 33.8246 188.378 33.8246C188.963 33.8246 189.612 33.857 190.326 33.922C191.105 33.9869 191.982 34.0194 192.956 34.0194L198.703 33.922C199.612 33.857 200.91 33.8246 202.598 33.8246C202.793 33.8246 202.891 34.0194 202.891 34.409C202.891 34.7986 202.793 34.9934 202.598 34.9934C199.547 34.9934 197.339 35.6102 195.975 36.8439C194.612 38.0777 193.995 39.9932 194.125 42.5905L196.462 86.8097C196.592 88.8226 196.819 90.2836 197.144 91.1926C197.534 92.1017 198.183 92.7186 199.092 93.0432C200.066 93.3679 201.56 93.5302 203.572 93.5302Z" fill="#333333"/>
<path d="M254.261 79.2126C254.261 79.0827 254.391 79.0178 254.651 79.0178C254.845 79.0178 255.008 79.0827 255.138 79.2126C255.332 79.2775 255.43 79.3424 255.43 79.4074C254.781 84.4721 254.456 89.0823 254.456 93.238C254.456 93.7575 254.358 94.1471 254.164 94.4068C253.969 94.6016 253.579 94.699 252.995 94.699H209.945C209.75 94.699 209.652 94.5042 209.652 94.1146C209.652 93.725 209.75 93.5302 209.945 93.5302C212.022 93.5302 213.516 93.3679 214.425 93.0432C215.399 92.7186 216.048 92.1017 216.373 91.1926C216.698 90.2187 216.86 88.7577 216.86 86.8097V41.7139C216.86 39.7659 216.698 38.3374 216.373 37.4283C216.048 36.5193 215.399 35.9024 214.425 35.5778C213.451 35.1882 211.957 34.9934 209.945 34.9934C209.75 34.9934 209.652 34.7986 209.652 34.409C209.652 34.0194 209.75 33.8246 209.945 33.8246H251.242C251.891 33.8246 252.216 34.1168 252.216 34.7012L252.411 47.6552C252.411 47.7851 252.216 47.8825 251.826 47.9474C251.501 48.0124 251.307 47.9474 251.242 47.7526C250.203 43.9865 248.45 41.1944 245.982 39.3763C243.515 37.5582 240.268 36.6491 236.242 36.6491H233.32C231.372 36.6491 229.944 37.0712 229.035 37.9153C228.126 38.7595 227.671 40.0581 227.671 41.8113V61.6807H235.755C239.521 61.6807 242.411 61.0314 244.424 59.7327C246.437 58.4341 247.443 56.616 247.443 54.2784C247.443 54.0836 247.605 53.9862 247.93 53.9862C248.32 53.9862 248.515 54.0836 248.515 54.2784L248.417 63.0443L248.515 67.7195C248.644 69.9272 248.709 71.6804 248.709 72.979C248.709 73.1089 248.515 73.1738 248.125 73.1738C247.735 73.1738 247.541 73.1089 247.541 72.979C247.541 70.3168 246.502 68.2389 244.424 66.7455C242.411 65.1871 239.489 64.4079 235.658 64.4079H227.671V86.4201C227.671 88.3031 228.028 89.6992 228.743 90.6083C229.457 91.5173 230.593 91.9718 232.152 91.9718H235.366C240.43 91.9718 244.489 90.9329 247.541 88.8551C250.592 86.7772 252.833 83.563 254.261 79.2126Z" fill="#333333"/>
<path d="M330.111 33.8246C330.241 33.8246 330.306 34.0194 330.306 34.409C330.306 34.7986 330.241 34.9934 330.111 34.9934C327.514 34.9934 325.469 36.0323 323.975 38.1101C322.482 40.1231 321.735 42.8502 321.735 46.2917V96.16C321.735 96.3548 321.573 96.4847 321.248 96.5496C320.988 96.6145 320.794 96.5821 320.664 96.4522L274.984 44.4411V82.3293C274.984 85.7708 275.698 88.4979 277.126 90.5108C278.555 92.5238 280.535 93.5302 283.068 93.5302C283.198 93.5302 283.262 93.725 283.262 94.1146C283.262 94.5042 283.198 94.699 283.068 94.699C281.25 94.699 279.853 94.6665 278.879 94.6016L273.62 94.5042L267.581 94.6016C266.477 94.6665 264.886 94.699 262.809 94.699C262.614 94.699 262.516 94.5042 262.516 94.1146C262.516 93.725 262.614 93.5302 262.809 93.5302C265.666 93.5302 267.906 92.5238 269.529 90.5108C271.217 88.4979 272.062 85.7708 272.062 82.3293V41.1295C269.919 38.7919 268.068 37.2011 266.51 36.357C265.016 35.4479 263.458 34.9934 261.835 34.9934C261.705 34.9934 261.64 34.7986 261.64 34.409C261.64 34.0194 261.705 33.8246 261.835 33.8246L265.925 33.922C266.77 33.9869 268.003 34.0194 269.627 34.0194L277.029 33.922C277.938 33.857 279.042 33.8246 280.34 33.8246C280.86 33.8246 281.25 33.9544 281.509 34.2142C281.769 34.4739 282.224 35.0258 282.873 35.87C283.977 37.3634 284.756 38.3699 285.21 38.8893L318.911 77.7516V46.2917C318.911 42.7853 318.196 40.0257 316.768 38.0127C315.339 35.9998 313.359 34.9934 310.826 34.9934C310.697 34.9934 310.632 34.7986 310.632 34.409C310.632 34.0194 310.697 33.8246 310.826 33.8246L315.015 33.922C317.092 34.0518 318.846 34.1168 320.274 34.1168C321.573 34.1168 323.391 34.0518 325.728 33.922L330.111 33.8246Z" fill="#333333"/>
<path d="M352.937 36.0648C345.21 36.0648 339.658 41.097 336.282 51.1616C336.217 51.3564 336.022 51.4538 335.697 51.4538C335.373 51.3889 335.21 51.259 335.21 51.0642C335.47 48.4669 335.762 45.1229 336.087 41.0321C336.412 36.8764 336.574 33.7596 336.574 31.6818C336.574 31.3571 336.736 31.1948 337.061 31.1948C337.451 31.1948 337.645 31.3571 337.645 31.6818C337.645 33.1103 339.496 33.8246 343.197 33.8246C348.781 34.0194 355.307 34.1168 362.774 34.1168C366.605 34.1168 370.664 34.0518 374.949 33.922L381.572 33.8246C384.04 33.8246 385.825 33.6622 386.929 33.3376C388.098 33.0129 388.845 32.3636 389.169 31.3896C389.234 31.1299 389.429 31 389.754 31C390.143 31 390.338 31.1299 390.338 31.3896C390.143 33.3376 389.916 36.4544 389.656 40.7399C389.462 45.0255 389.364 48.4669 389.364 51.0642C389.364 51.259 389.202 51.3564 388.877 51.3564C388.553 51.3564 388.358 51.259 388.293 51.0642C387.319 46.0644 385.501 42.3308 382.839 39.8633C380.176 37.3309 376.897 36.0648 373.001 36.0648C371.118 36.0648 369.852 36.4868 369.203 37.3309C368.618 38.1101 368.326 39.6361 368.326 41.9087V86.8097C368.326 88.8226 368.521 90.2836 368.91 91.1926C369.3 92.1017 370.047 92.7186 371.151 93.0432C372.255 93.3679 374.008 93.5302 376.41 93.5302C376.605 93.5302 376.702 93.725 376.702 94.1146C376.702 94.5042 376.605 94.699 376.41 94.699C374.073 94.699 372.222 94.6665 370.858 94.6016L362.774 94.5042L354.885 94.6016C353.521 94.6665 351.638 94.699 349.236 94.699C349.041 94.699 348.944 94.5042 348.944 94.1146C348.944 93.725 349.041 93.5302 349.236 93.5302C351.573 93.5302 353.294 93.3679 354.398 93.0432C355.567 92.7186 356.346 92.1017 356.736 91.1926C357.19 90.2187 357.417 88.7577 357.417 86.8097V41.7139C357.417 39.5062 357.125 38.0127 356.541 37.2335C355.956 36.4543 354.755 36.0648 352.937 36.0648Z" fill="#333333"/>
</g>
<defs>
<clipPath id="clip0_67_96">
<rect width="390" height="128" fill="white"/>
</clipPath>
</defs>
</svg>
