<svg xmlns="http://www.w3.org/2000/svg" width="16" height="16"><path d="M 6.667 8.667 C 7.246 9.441 8.133 9.926 9.098 9.995 C 10.062 10.064 11.01 9.711 11.693 9.027 L 13.693 7.027 C 14.957 5.719 14.939 3.64 13.653 2.354 C 12.367 1.068 10.288 1.05 8.98 2.313 L 7.833 3.453" fill="transparent" stroke-width="1.33" stroke="#333" stroke-linecap="round" stroke-linejoin="round" stroke-dasharray=""></path><path d="M 9.333 7.333 C 8.754 6.559 7.867 6.074 6.902 6.005 C 5.938 5.936 4.99 6.289 4.307 6.973 L 2.307 8.973 C 1.043 10.281 1.061 12.36 2.347 13.646 C 3.633 14.932 5.712 14.95 7.02 13.687 L 8.16 12.547" fill="transparent" stroke-width="1.33" stroke="#333" stroke-linecap="round" stroke-linejoin="round" stroke-dasharray=""></path></svg>